<svg width="18" height="18" viewBox="0 0 18 18" fill="none" xmlns="http://www.w3.org/2000/svg">
<path d="M14.5165 5.82311L11.0269 5.76883" stroke="#04498F" stroke-linecap="round" stroke-linejoin="round"/>
<path d="M12.7385 4.05127L12.8048 7.54064" stroke="#04498F" stroke-linecap="round" stroke-linejoin="round"/>
<g clip-path="url(#clip0_607_341)">
<path fill-rule="evenodd" clip-rule="evenodd" d="M8.16669 9.66668C8.16669 9.20644 8.53979 8.83334 9.00002 8.83334C9.46026 8.83334 9.83336 9.20644 9.83336 9.66668C9.83336 10.1269 9.46026 10.5 9.00002 10.5C8.53979 10.5 8.16669 10.1269 8.16669 9.66668ZM9.00002 7.83334C7.9875 7.83334 7.16669 8.65415 7.16669 9.66668C7.16669 10.6792 7.9875 11.5 9.00002 11.5C10.0125 11.5 10.8334 10.6792 10.8334 9.66668C10.8334 8.65415 10.0125 7.83334 9.00002 7.83334ZM7.66668 11.5C7.18045 11.5 6.71414 11.6932 6.37032 12.037C6.02651 12.3808 5.83335 12.8471 5.83335 13.3333V14.3333C5.83335 14.6095 6.05721 14.8333 6.33335 14.8333C6.60949 14.8333 6.83335 14.6095 6.83335 14.3333V13.3333C6.83335 13.1123 6.92115 12.9004 7.07743 12.7441C7.23371 12.5878 7.44567 12.5 7.66668 12.5H10.3334C10.5544 12.5 10.7663 12.5878 10.9226 12.7441C11.0789 12.9004 11.1667 13.1123 11.1667 13.3333V14.3333C11.1667 14.6095 11.3905 14.8333 11.6667 14.8333C11.9428 14.8333 12.1667 14.6095 12.1667 14.3333V13.3333C12.1667 12.8471 11.9735 12.3808 11.6297 12.037C11.2859 11.6932 10.8196 11.5 10.3334 11.5H7.66668Z" fill="#04498F"/>
</g>
<path fill-rule="evenodd" clip-rule="evenodd" d="M12.7486 1H5.25143C2.6381 1 1 2.84967 1 5.46813V12.5319C1 15.1503 2.63048 17 5.25143 17H12.7486C15.3695 17 17 15.1503 17 12.5319V5.46813C17 2.84967 15.3695 1 12.7486 1Z" stroke="#04498F" stroke-linecap="round" stroke-linejoin="round"/>
<defs>
<clipPath id="clip0_607_341">
<rect width="8" height="8" fill="white" transform="translate(5 7.33334)"/>
</clipPath>
</defs>
</svg>
