<svg width="13" height="12" viewBox="0 0 13 12" fill="none" xmlns="http://www.w3.org/2000/svg">
<path d="M10.0027 5.19999H3.92864L6.56952 2.57016C6.72022 2.41964 6.80487 2.21549 6.80487 2.00262C6.80487 1.78976 6.72022 1.58561 6.56952 1.43509C6.41883 1.28457 6.21445 1.20001 6.00133 1.20001C5.78822 1.20001 5.58384 1.28457 5.43314 1.43509L1.43181 5.4318C1.35896 5.50782 1.30185 5.59746 1.26376 5.69558C1.18372 5.89019 1.18372 6.10847 1.26376 6.30308C1.30185 6.4012 1.35896 6.49084 1.43181 6.56686L5.43314 10.5636C5.50754 10.6385 5.59605 10.698 5.69357 10.7385C5.79109 10.7791 5.89569 10.8 6.00133 10.8C6.10698 10.8 6.21158 10.7791 6.3091 10.7385C6.40662 10.698 6.49513 10.6385 6.56952 10.5636C6.64453 10.4893 6.70406 10.4009 6.74469 10.3034C6.78532 10.206 6.80624 10.1016 6.80624 9.99604C6.80624 9.89051 6.78532 9.78604 6.74469 9.68863C6.70406 9.59122 6.64453 9.50281 6.56952 9.4285L3.92864 6.79867H10.0027C10.2149 6.79867 10.4185 6.71446 10.5685 6.56455C10.7186 6.41464 10.8029 6.21133 10.8029 5.99933C10.8029 5.78733 10.7186 5.58402 10.5685 5.43411C10.4185 5.28421 10.2149 5.19999 10.0027 5.19999Z" fill="#04498F"/>
</svg>
