<svg width="12" height="12" viewBox="0 0 12 12" fill="none" xmlns="http://www.w3.org/2000/svg">
<path d="M8.96 3.31C8.90926 3.18783 8.81217 3.09074 8.69 3.04C8.62989 3.01438 8.56534 3.00079 8.5 3H3.5C3.36739 3 3.24021 3.05268 3.14645 3.14645C3.05268 3.24021 3 3.36739 3 3.5C3 3.63261 3.05268 3.75979 3.14645 3.85355C3.24021 3.94732 3.36739 4 3.5 4H7.295L3.145 8.145C3.09814 8.19148 3.06094 8.24678 3.03555 8.30771C3.01017 8.36864 2.9971 8.43399 2.9971 8.5C2.9971 8.56601 3.01017 8.63136 3.03555 8.69229C3.06094 8.75322 3.09814 8.80852 3.145 8.855C3.19148 8.90186 3.24678 8.93906 3.30771 8.96445C3.36864 8.98983 3.43399 9.0029 3.5 9.0029C3.56601 9.0029 3.63136 8.98983 3.69229 8.96445C3.75322 8.93906 3.80852 8.90186 3.855 8.855L8 4.705V8.5C8 8.63261 8.05268 8.75979 8.14645 8.85355C8.24021 8.94732 8.36739 9 8.5 9C8.63261 9 8.75979 8.94732 8.85355 8.85355C8.94732 8.75979 9 8.63261 9 8.5V3.5C8.99921 3.43466 8.98562 3.37011 8.96 3.31V3.31Z" fill="#E7F5FF"/>
</svg>
