<svg width="12" height="12" viewBox="0 0 12 12" fill="none" xmlns="http://www.w3.org/2000/svg">
<path d="M5 9C5.13261 9 5.25979 8.94732 5.35355 8.85355C5.44732 8.75979 5.5 8.63261 5.5 8.5V5.5C5.5 5.36739 5.44732 5.24021 5.35355 5.14645C5.25979 5.05268 5.13261 5 5 5C4.86739 5 4.74021 5.05268 4.64645 5.14645C4.55268 5.24021 4.5 5.36739 4.5 5.5V8.5C4.5 8.63261 4.55268 8.75979 4.64645 8.85355C4.74021 8.94732 4.86739 9 5 9ZM10 3H8V2.5C8 2.10218 7.84196 1.72064 7.56066 1.43934C7.27936 1.15804 6.89782 1 6.5 1H5.5C5.10218 1 4.72064 1.15804 4.43934 1.43934C4.15804 1.72064 4 2.10218 4 2.5V3H2C1.86739 3 1.74021 3.05268 1.64645 3.14645C1.55268 3.24021 1.5 3.36739 1.5 3.5C1.5 3.63261 1.55268 3.75979 1.64645 3.85355C1.74021 3.94732 1.86739 4 2 4H2.5V9.5C2.5 9.89782 2.65804 10.2794 2.93934 10.5607C3.22064 10.842 3.60218 11 4 11H8C8.39782 11 8.77936 10.842 9.06066 10.5607C9.34196 10.2794 9.5 9.89782 9.5 9.5V4H10C10.1326 4 10.2598 3.94732 10.3536 3.85355C10.4473 3.75979 10.5 3.63261 10.5 3.5C10.5 3.36739 10.4473 3.24021 10.3536 3.14645C10.2598 3.05268 10.1326 3 10 3ZM5 2.5C5 2.36739 5.05268 2.24021 5.14645 2.14645C5.24021 2.05268 5.36739 2 5.5 2H6.5C6.63261 2 6.75979 2.05268 6.85355 2.14645C6.94732 2.24021 7 2.36739 7 2.5V3H5V2.5ZM8.5 9.5C8.5 9.63261 8.44732 9.75979 8.35355 9.85355C8.25979 9.94732 8.13261 10 8 10H4C3.86739 10 3.74021 9.94732 3.64645 9.85355C3.55268 9.75979 3.5 9.63261 3.5 9.5V4H8.5V9.5ZM7 9C7.13261 9 7.25979 8.94732 7.35355 8.85355C7.44732 8.75979 7.5 8.63261 7.5 8.5V5.5C7.5 5.36739 7.44732 5.24021 7.35355 5.14645C7.25979 5.05268 7.13261 5 7 5C6.86739 5 6.74021 5.05268 6.64645 5.14645C6.55268 5.24021 6.5 5.36739 6.5 5.5V8.5C6.5 8.63261 6.55268 8.75979 6.64645 8.85355C6.74021 8.94732 6.86739 9 7 9Z" fill="white"/>
</svg>
