<svg width="18" height="18" viewBox="0 0 18 18" fill="none" xmlns="http://www.w3.org/2000/svg">
<g clip-path="url(#clip0_607_350)">
<path fill-rule="evenodd" clip-rule="evenodd" d="M6.50004 8.95834C6.50004 8.40606 6.94775 7.95834 7.50004 7.95834C8.05232 7.95834 8.50004 8.40606 8.50004 8.95834C8.50004 9.51063 8.05232 9.95834 7.50004 9.95834C6.94775 9.95834 6.50004 9.51063 6.50004 8.95834ZM7.50004 6.95834C6.39547 6.95834 5.50004 7.85377 5.50004 8.95834C5.50004 10.0629 6.39547 10.9583 7.50004 10.9583C8.6046 10.9583 9.50004 10.0629 9.50004 8.95834C9.50004 7.85377 8.6046 6.95834 7.50004 6.95834ZM6.00003 11.0833C5.4696 11.0833 4.96089 11.2941 4.58582 11.6691C4.21074 12.0442 4.00003 12.5529 4.00003 13.0833V14.2083C4.00003 14.4845 4.22389 14.7083 4.50003 14.7083C4.77617 14.7083 5.00003 14.4845 5.00003 14.2083V13.0833C5.00003 12.8181 5.10539 12.5638 5.29292 12.3762C5.48046 12.1887 5.73481 12.0833 6.00003 12.0833H9.00003C9.26525 12.0833 9.5196 12.1887 9.70714 12.3762C9.89467 12.5638 10 12.8181 10 13.0833V14.2083C10 14.4845 10.2239 14.7083 10.5 14.7083C10.7762 14.7083 11 14.4845 11 14.2083V13.0833C11 12.5529 10.7893 12.0442 10.4142 11.6691C10.0392 11.2941 9.53046 11.0833 9.00003 11.0833H6.00003Z" fill="#04498F"/>
</g>
<path d="M11 7C11.2861 7.07106 11.5396 7.23248 11.7207 7.45881C11.9017 7.68514 12 7.96349 12 8.25C12 8.53651 11.9017 8.81486 11.7207 9.04119C11.5396 9.26752 11.2861 9.42894 11 9.5" stroke="#04498F" stroke-linecap="round" stroke-linejoin="round"/>
<path d="M13.5 13.5V12.6482C13.4997 12.2708 13.3522 11.9041 13.0807 11.6058C12.8092 11.3074 12.4291 11.0944 12 11" stroke="#04498F" stroke-linecap="round" stroke-linejoin="round"/>
<path fill-rule="evenodd" clip-rule="evenodd" d="M12.7486 1H5.25143C2.6381 1 1 2.84967 1 5.46813V12.5319C1 15.1503 2.63048 17 5.25143 17H12.7486C15.3695 17 17 15.1503 17 12.5319V5.46813C17 2.84967 15.3695 1 12.7486 1Z" stroke="#04498F" stroke-linecap="round" stroke-linejoin="round"/>
<defs>
<clipPath id="clip0_607_350">
<rect width="9" height="9" fill="white" transform="translate(3 6.33334)"/>
</clipPath>
</defs>
</svg>
