<svg width="18" height="18" viewBox="0 0 18 18" fill="none" xmlns="http://www.w3.org/2000/svg">
<path d="M9.51645 12.8231L5.51694 12.7609" stroke="#04498F" stroke-linecap="round" stroke-linejoin="round"/>
<path d="M8.51645 10.8231L6.01675 10.7842" stroke="#04498F" stroke-linecap="round" stroke-linejoin="round"/>
<path fill-rule="evenodd" clip-rule="evenodd" d="M9.87429 7H6.12571C4.81905 7 4 7.92483 4 9.23406V12.7659C4 14.0752 4.81524 15 6.12571 15H9.87429C11.1848 15 12 14.0752 12 12.7659V9.23406C12 7.92483 11.1848 7 9.87429 7Z" stroke="#04498F" stroke-linecap="round" stroke-linejoin="round"/>
<path d="M14.4984 4.77184L11.0088 4.71756" stroke="#04498F" stroke-linecap="round" stroke-linejoin="round"/>
<path d="M12.7205 3L12.7868 6.48937" stroke="#04498F" stroke-linecap="round" stroke-linejoin="round"/>
<path fill-rule="evenodd" clip-rule="evenodd" d="M12.7486 1H5.25143C2.6381 1 1 2.84967 1 5.46813V12.5319C1 15.1503 2.63048 17 5.25143 17H12.7486C15.3695 17 17 15.1503 17 12.5319V5.46813C17 2.84967 15.3695 1 12.7486 1Z" stroke="#04498F" stroke-linecap="round" stroke-linejoin="round"/>
</svg>
