<svg width="12" height="12" viewBox="0 0 12 12" fill="none" xmlns="http://www.w3.org/2000/svg">
<path d="M10.5 6C10.3674 6 10.2402 6.05268 10.1464 6.14645C10.0527 6.24021 10 6.36739 10 6.5V9.5C10 9.63261 9.94732 9.75979 9.85355 9.85355C9.75979 9.94732 9.63261 10 9.5 10H2.5C2.36739 10 2.24021 9.94732 2.14645 9.85355C2.05268 9.75979 2 9.63261 2 9.5V2.5C2 2.36739 2.05268 2.24021 2.14645 2.14645C2.24021 2.05268 2.36739 2 2.5 2H5.5C5.63261 2 5.75979 1.94732 5.85355 1.85355C5.94732 1.75979 6 1.63261 6 1.5C6 1.36739 5.94732 1.24021 5.85355 1.14645C5.75979 1.05268 5.63261 1 5.5 1H2.5C2.10218 1 1.72064 1.15804 1.43934 1.43934C1.15804 1.72064 1 2.10218 1 2.5V9.5C1 9.89782 1.15804 10.2794 1.43934 10.5607C1.72064 10.842 2.10218 11 2.5 11H9.5C9.89782 11 10.2794 10.842 10.5607 10.5607C10.842 10.2794 11 9.89782 11 9.5V6.5C11 6.36739 10.9473 6.24021 10.8536 6.14645C10.7598 6.05268 10.6326 6 10.5 6ZM3 6.38V8.5C3 8.63261 3.05268 8.75979 3.14645 8.85355C3.24021 8.94732 3.36739 9 3.5 9H5.62C5.6858 9.00038 5.75103 8.98777 5.81195 8.96289C5.87287 8.938 5.92828 8.90134 5.975 8.855L9.435 5.39L10.855 4C10.9019 3.95352 10.9391 3.89822 10.9644 3.83729C10.9898 3.77636 11.0029 3.71101 11.0029 3.645C11.0029 3.57899 10.9898 3.51364 10.9644 3.45271C10.9391 3.39178 10.9019 3.33648 10.855 3.29L8.735 1.145C8.68852 1.09814 8.63322 1.06094 8.57229 1.03555C8.51136 1.01017 8.44601 0.997101 8.38 0.997101C8.31399 0.997101 8.24864 1.01017 8.18771 1.03555C8.12678 1.06094 8.07148 1.09814 8.025 1.145L6.615 2.56L3.145 6.025C3.09866 6.07172 3.062 6.12713 3.03711 6.18805C3.01223 6.24897 2.99962 6.3142 3 6.38V6.38ZM8.38 2.205L9.795 3.62L9.085 4.33L7.67 2.915L8.38 2.205ZM4 6.585L6.965 3.62L8.38 5.035L5.415 8H4V6.585Z" fill="white"/>
</svg>
