<svg width="12" height="12" viewBox="0 0 12 12" fill="none" xmlns="http://www.w3.org/2000/svg">
<path d="M6 1C4.93913 1 3.92172 1.42143 3.17157 2.17157C2.42143 2.92172 2 3.93913 2 5C2 7.7 5.525 10.75 5.675 10.88C5.76557 10.9575 5.88082 11 6 11C6.11918 11 6.23443 10.9575 6.325 10.88C6.5 10.75 10 7.7 10 5C10 3.93913 9.57857 2.92172 8.82843 2.17157C8.07828 1.42143 7.06087 1 6 1V1ZM6 9.825C4.935 8.825 3 6.67 3 5C3 4.20435 3.31607 3.44129 3.87868 2.87868C4.44129 2.31607 5.20435 2 6 2C6.79565 2 7.55871 2.31607 8.12132 2.87868C8.68393 3.44129 9 4.20435 9 5C9 6.67 7.065 8.83 6 9.825ZM6 3C5.60444 3 5.21776 3.1173 4.88886 3.33706C4.55996 3.55682 4.30362 3.86918 4.15224 4.23463C4.00087 4.60009 3.96126 5.00222 4.03843 5.39018C4.1156 5.77814 4.30608 6.13451 4.58579 6.41421C4.86549 6.69392 5.22186 6.8844 5.60982 6.96157C5.99778 7.03874 6.39991 6.99913 6.76537 6.84776C7.13082 6.69638 7.44318 6.44004 7.66294 6.11114C7.8827 5.78224 8 5.39556 8 5C8 4.46957 7.78929 3.96086 7.41421 3.58579C7.03914 3.21071 6.53043 3 6 3ZM6 6C5.80222 6 5.60888 5.94135 5.44443 5.83147C5.27998 5.72159 5.15181 5.56541 5.07612 5.38268C5.00043 5.19996 4.98063 4.99889 5.01921 4.80491C5.0578 4.61093 5.15304 4.43275 5.29289 4.29289C5.43275 4.15304 5.61093 4.0578 5.80491 4.01921C5.99889 3.98063 6.19996 4.00043 6.38268 4.07612C6.56541 4.15181 6.72159 4.27998 6.83147 4.44443C6.94135 4.60888 7 4.80222 7 5C7 5.26522 6.89464 5.51957 6.70711 5.70711C6.51957 5.89464 6.26522 6 6 6Z" fill="#E7F5FF"/>
</svg>
