<svg width="18" height="18" viewBox="0 0 18 18" fill="none" xmlns="http://www.w3.org/2000/svg">
<path d="M10.5165 10.8231L6.51694 10.7609" stroke="#04498F" stroke-linecap="round" stroke-linejoin="round"/>
<path d="M9.51645 8.82312L7.01675 8.78424" stroke="#04498F" stroke-linecap="round" stroke-linejoin="round"/>
<path fill-rule="evenodd" clip-rule="evenodd" d="M10.8743 5H7.12571C5.81905 5 5 5.92483 5 7.23406V10.7659C5 12.0752 5.81524 13 7.12571 13H10.8743C12.1848 13 13 12.0752 13 10.7659V7.23406C13 5.92483 12.1848 5 10.8743 5Z" stroke="#04498F" stroke-linecap="round" stroke-linejoin="round"/>
<path fill-rule="evenodd" clip-rule="evenodd" d="M12.7486 1H5.25143C2.6381 1 1 2.84967 1 5.46813V12.5319C1 15.1503 2.63048 17 5.25143 17H12.7486C15.3695 17 17 15.1503 17 12.5319V5.46813C17 2.84967 15.3695 1 12.7486 1Z" stroke="#04498F" stroke-linecap="round" stroke-linejoin="round"/>
</svg>
